<svg width="25" height="25" viewBox="0 0 25 25" fill="none" xmlns="http://www.w3.org/2000/svg">
<path fill-rule="evenodd" clip-rule="evenodd" d="M5.92076 9.48804C5.12081 12.3443 5.4607 15.9434 6.33167 18.7107L4.84124 19.1799C3.90904 16.218 3.51127 12.2976 4.41616 9.06665C4.8715 7.4408 5.6695 5.94664 6.94068 4.85723C8.22243 3.75876 9.92382 3.125 12.0779 3.125C13.3064 3.125 14.9722 3.4529 16.8367 4.68708L15.9743 5.99C14.3767 4.93252 13.0133 4.6875 12.0779 4.6875C10.2486 4.6875 8.92147 5.21748 7.95745 6.04365C6.98286 6.87889 6.31784 8.07026 5.92076 9.48804ZM18.3586 11.38C18.3196 9.62549 18.2901 8.30652 17.2968 7.31749L18.3993 6.21022C19.8479 7.65264 19.8856 9.56893 19.9164 11.1299C19.918 11.2126 19.9196 11.2944 19.9215 11.3749C19.9597 13.0917 20.0635 14.4251 21.2155 15.4258L20.1907 16.6054C18.4576 15.0997 18.3963 13.064 18.3593 11.4098L18.3586 11.38ZM12.0779 8.26823C10.5124 8.26823 9.2528 9.52684 9.2528 11.0677H7.6903C7.6903 8.65342 9.65996 6.70573 12.0779 6.70573C14.4958 6.70573 16.4655 8.65341 16.4655 11.0677C16.4655 12.0249 16.6034 13.5632 17.0132 15.0185C17.4332 16.5099 18.0863 17.726 18.9813 18.2815L18.1574 19.6092C16.7444 18.7323 15.9548 17.0243 15.5093 15.4421C15.0535 13.824 14.903 12.1396 14.903 11.0677C14.903 9.52684 13.6434 8.26823 12.0779 8.26823ZM11.7385 15.9793C11.3107 14.026 11.2341 12.1646 11.2979 11.0241L12.858 11.1114C12.8016 12.1193 12.8692 13.8385 13.2649 15.645C13.6625 17.4605 14.3731 19.2797 15.5419 20.5691L14.3842 21.6184C12.9564 20.0432 12.1644 17.9235 11.7385 15.9793ZM7.6903 12.5017V12.5H9.2528C9.2528 12.9676 9.25313 14.3489 9.51324 15.9559C9.7761 17.5798 10.2904 19.3408 11.2588 20.6228L10.012 21.5647C8.81655 19.9821 8.24892 17.9236 7.97082 16.2055C7.6903 14.4725 7.6903 12.9906 7.6903 12.5017Z" fill="#080341"/>
</svg>
