<svg width="25" height="25" viewBox="0 0 25 25" fill="none" xmlns="http://www.w3.org/2000/svg">
<path d="M20.8333 18.75V8.125C20.8333 6.37483 20.8333 5.49975 20.4927 4.83128C20.1931 4.24327 19.7151 3.76521 19.1271 3.4656C18.4585 3.125 17.5835 3.125 15.8333 3.125H9.16666C7.41649 3.125 6.54141 3.125 5.87294 3.4656C5.28493 3.76521 4.80686 4.24327 4.50726 4.83128C4.16666 5.49975 4.16666 6.37483 4.16666 8.125V18.75M20.8333 18.75C20.8333 20.4759 19.4343 21.875 17.7083 21.875H7.29166C5.56577 21.875 4.16666 20.4759 4.16666 18.75M20.8333 18.75C20.8333 17.0241 19.4343 15.625 17.7083 15.625H7.29166C5.56577 15.625 4.16666 17.0241 4.16666 18.75M11.9792 6.77083L10.9375 9.375H14.0625L13.0208 11.9792M7.29166 18.75H9.37499" stroke="#080341" stroke-width="2" stroke-linecap="round" stroke-linejoin="round"/>
</svg>
